HIERARCHY
ROOT Hips
{
	OFFSET	0.00	0.00	0.00
	CHANNELS 6 Xposition Yposition Zposition Zrotation Xrotation Yrotation
	JOINT LeftUpLeg
	{
		OFFSET	 0.126116	-0.065224	 0.014019
		CHANNELS 3 Zrotation Xrotation Yrotation
		JOINT LeftLeg
		{
			OFFSET	 0.000000	 0.569914	 0.000000
			CHANNELS 3 Zrotation Xrotation Yrotation
			JOINT LeftFoot
			{
				OFFSET	 0.000000	 0.544423	 0.000000
				CHANNELS 3 Zrotation Xrotation Yrotation
				JOINT LeftToeBase
				{
					OFFSET	 0.000000	 0.207117	 0.000000
					CHANNELS 3 Zrotation Xrotation Yrotation
					End Site
					{
						OFFSET	 0.000000	 0.207117	 0.000000
					}
				}
			}
		}
	}
	JOINT RightUpLeg
	{
		OFFSET	-0.124023	-0.065224	 0.008373
		CHANNELS 3 Zrotation Xrotation Yrotation
		JOINT RightLeg
		{
			OFFSET	 0.000000	 0.570047	 0.000000
			CHANNELS 3 Zrotation Xrotation Yrotation
			JOINT RightFoot
			{
				OFFSET	 0.000000	 0.544354	 0.000000
				CHANNELS 3 Zrotation Xrotation Yrotation
				JOINT RightToeBase
				{
					OFFSET	 0.000000	 0.207540	 0.000000
					CHANNELS 3 Zrotation Xrotation Yrotation
					End Site
					{
						OFFSET	 0.000000	 0.207540	 0.000000
					}
				}
			}
		}
	}
	JOINT Spine
	{
		OFFSET	 0.000184	 0.117403	 0.007763
		CHANNELS 3 Zrotation Xrotation Yrotation
		JOINT Spine1
		{
			OFFSET	 0.000000	 0.137269	 0.000000
			CHANNELS 3 Zrotation Xrotation Yrotation
			JOINT Spine2
			{
				OFFSET	 0.000000	 0.156879	 0.000000
				CHANNELS 3 Zrotation Xrotation Yrotation
				JOINT LeftShoulder
				{
					OFFSET	 0.080501	 0.160143	 0.002496
					CHANNELS 3 Zrotation Xrotation Yrotation
					JOINT LeftArm
					{
						OFFSET	 0.000000	 0.164363	 0.000000
						CHANNELS 3 Zrotation Xrotation Yrotation
						JOINT LeftForeArm
						{
							OFFSET	 0.000000	 0.364576	 0.000000
							CHANNELS 3 Zrotation Xrotation Yrotation
							JOINT LeftHand
							{
								OFFSET	 0.000000	 0.360812	 0.000000
								CHANNELS 3 Zrotation Xrotation Yrotation
								JOINT LeftHandIndex1
								{
									OFFSET	 0.000000	 0.086006	 0.000000
									CHANNELS 3 Zrotation Xrotation Yrotation
									JOINT LeftHandIndex2
									{
										OFFSET	 0.000000	 0.047237	 0.000000
										CHANNELS 3 Zrotation Xrotation Yrotation
										JOINT LeftHandIndex3
										{
											OFFSET	-0.004284	 0.038165	 0.000551
											CHANNELS 3 Zrotation Xrotation Yrotation
											End Site
											{
												OFFSET	-0.004284	 0.038165	 0.000551
											}
										}
									}
								}
							}
						}
					}
				}
				JOINT Neck
				{
					OFFSET	 0.000000	 0.176489	 0.000000
					CHANNELS 3 Zrotation Xrotation Yrotation
					JOINT Head
					{
						OFFSET	 0.000000	 0.077941	 0.001747
						CHANNELS 3 Zrotation Xrotation Yrotation
						End Site
						{
							OFFSET	 0.000000	 0.077941	 0.001747
						}
					}
				}
				JOINT RightShoulder
				{
					OFFSET	-0.080363	 0.159706	-0.000306
					CHANNELS 3 Zrotation Xrotation Yrotation
					JOINT RightArm
					{
						OFFSET	 0.000000	 0.164196	 0.000000
						CHANNELS 3 Zrotation Xrotation Yrotation
						JOINT RightForeArm
						{
							OFFSET	 0.000000	 0.365611	 0.000000
							CHANNELS 3 Zrotation Xrotation Yrotation
							JOINT RightHand
							{
								OFFSET	 0.000000	 0.360648	 0.000000
								CHANNELS 3 Zrotation Xrotation Yrotation
								JOINT RightHandIndex1
								{
									OFFSET	 0.000000	 0.069977	 0.000000
									CHANNELS 3 Zrotation Xrotation Yrotation
									JOINT RightHandIndex2
									{
										OFFSET	 0.000000	 0.052305	 0.000000
										CHANNELS 3 Zrotation Xrotation Yrotation
										JOINT RightHandIndex3
										{
											OFFSET	 0.009002	 0.042196	 0.000782
											CHANNELS 3 Zrotation Xrotation Yrotation
											End Site
											{
												OFFSET	 0.009002	 0.042196	 0.000782
											}
										}
									}
								}
							}
						}
					}
				}
			}
		}
	}
}
MOTION
Frames:    13
Frame Time: 0.03333334
 0.002104	 1.271130	 0.063399	-0.299741	 0.003713	-179.994400	-177.262800	 0.952955	-10.297370	 2.148401	-10.034920	-0.068807	-5.286897	 69.829030	 4.723620	 1.292262	 28.425850	-2.713146	 176.698900	 2.076833	 10.276650	-2.472145	-11.848920	 0.009668	 5.488318	 70.638220	-4.844039	-1.288183	 28.361890	 2.710176	-0.085337	 2.852095	 7.064928	-1.628271	 3.348117	 3.673365	 1.516049	-4.215887	-10.681920	-101.478000	 1.740665	 90.353390	 61.924870	 44.656000	-48.106430	 1.877865	 3.922734	 1.390802	-18.204500	-1.318950	 18.375650	-6.580301	 5.266122	 0.000000	 0.000000	 0.000000	 0.000000	 0.000000	 0.000000	 0.000000	 0.089846	-3.783161	 0.005928	 0.023221	 1.006905	-2.642086	 101.796200	-0.213307	-89.955470	-5.005822	 62.451740	-3.592076	-6.655109	 10.082060	 1.869137	-2.788380	-20.874300	 28.056420	 15.208500	 5.323790	 0.000000	 0.000000	 0.000000	 0.000000	 0.000000	 0.000000	 0.000000
 0.002106	 1.269883	 0.044550	-0.299751	 0.003715	-179.994400	-177.163100	 1.629351	-11.456730	 2.544665	-11.836420	 0.006373	-5.820030	 70.899050	 5.030664	 1.292262	 28.425850	-2.713146	 176.577400	 1.016595	 11.418350	-2.435465	-11.678090	 0.017143	 5.832932	 71.443180	-5.024530	-1.288183	 28.361890	 2.710176	-0.057998	 2.852783	 6.515585	-1.628284	 3.348294	 3.673376	 1.516043	-4.215998	-10.681920	-101.478000	 1.740659	 90.353370	 61.666420	 44.559650	-47.851200	 2.024988	 3.925362	 0.982699	-18.049760	-1.393888	 17.703200	-6.580301	 5.266122	 0.000000	 0.000000	 0.000000	 0.000000	 0.000000	 0.000000	 0.000000	 0.089846	-3.783161	 0.005928	 0.023221	 1.006905	-2.642086	 101.796200	-0.213327	-89.955440	-4.718877	 61.903810	-3.820356	-7.234349	 10.709970	 2.349669	-2.645050	-21.347830	 28.539410	 15.208500	 5.323790	 0.000000	 0.000000	 0.000000	 0.000000	 0.000000	 0.000000	 0.000000
 0.002108	 1.268652	 0.025936	-0.299741	 0.003713	-179.994400	-177.030800	 2.136935	-12.601500	 2.870478	-13.299810	 0.077280	-6.315258	 71.793200	 5.328173	 1.292262	 28.425850	-2.713146	 176.463500	-0.190417	 12.541200	-2.331354	-11.192030	 0.037786	 6.153010	 72.067320	-5.178658	-1.288183	 28.361890	 2.710176	-0.019375	 2.853305	 5.739596	-1.628271	 3.348117	 3.673365	 1.516049	-4.215887	-10.681920	-101.478000	 1.740665	 90.353390	 61.409540	 44.462570	-47.596500	 2.232642	 3.928661	 0.406149	-17.856750	-1.586345	 16.756730	-6.580301	 5.266122	 0.000000	 0.000000	 0.000000	 0.000000	 0.000000	 0.000000	 0.000000	 0.089846	-3.783161	 0.005928	 0.023221	 1.006905	-2.642086	 101.796200	-0.213307	-89.955470	-4.226977	 61.121950	-4.220780	-8.201715	 11.805690	 3.074238	-2.365834	-22.228530	 29.209360	 15.208500	 5.323790	 0.000000	 0.000000	 0.000000	 0.000000	 0.000000	 0.000000	 0.000000
 0.002111	 1.266673	-0.003994	-0.299741	 0.003713	-179.994400	-176.772800	 2.614067	-14.441550	 3.251533	-14.988540	 0.170407	-7.008243	 72.888220	 5.757717	 1.292262	 28.425850	-2.713146	 176.319300	-2.527166	 14.336590	-1.996747	-9.618817	 0.098223	 6.550933	 72.645630	-5.314662	-1.288183	 28.361890	 2.710176	 0.066845	 2.852587	 4.007455	-1.628271	 3.348117	 3.673365	 1.516049	-4.215887	-10.681920	-101.478000	 1.740665	 90.353390	 60.990360	 44.301390	-47.177570	 2.697750	 3.937793	-0.882303	-17.464290	-2.139583	 14.647740	-6.580301	 5.266122	 0.000000	 0.000000	 0.000000	 0.000000	 0.000000	 0.000000	 0.000000	 0.089846	-3.783161	 0.005928	 0.023221	 1.006905	-2.642086	 101.796200	-0.213307	-89.955470	-3.197701	 59.470450	-5.045696	-10.461360	 14.338240	 4.797805	-1.692716	-24.398460	 30.701590	 15.208500	 5.323790	 0.000000	 0.000000	 0.000000	 0.000000	 0.000000	 0.000000	 0.000000
 0.002114	 1.264926	-0.030414	-0.299741	 0.003713	-179.994400	-176.526400	 2.693280	-16.063960	 3.439152	-15.810310	 0.220232	-7.474092	 73.509260	 6.046090	 1.292262	 28.425850	-2.713146	 176.280700	-5.219096	 15.916270	-1.438264	-6.960541	 0.178765	 6.601334	 72.484510	-5.184313	-1.288183	 28.361890	 2.710176	 0.167285	 2.848467	 1.988242	-1.628294	 3.348120	 3.673365	 1.516058	-4.215895	-10.681910	-101.478000	 1.740671	 90.353390	 60.614750	 44.153790	-46.799900	 3.241230	 3.947719	-2.388780	-17.036180	-2.866912	 12.193480	-6.580301	 5.266122	 0.000000	 0.000000	 0.000000	 0.000000	 0.000000	 0.000000	 0.000000	 0.089846	-3.783161	 0.005928	 0.023221	 1.006905	-2.642085	 101.796200	-0.213306	-89.955470	-2.223931	 57.714680	-5.789962	-13.078550	 17.144910	 6.949987	-0.931290	-26.979700	 32.448520	 15.208500	 5.323790	 0.000000	 0.000000	 0.000000	 0.000000	 0.000000	 0.000000	 0.000000
 0.002129	 1.255261	-0.176577	-0.299741	 0.003713	-179.994400	-174.997700	 1.935236	-24.982360	 4.028357	-18.345730	 0.393304	-10.125160	 75.835110	 7.661156	 1.292262	 28.425850	-2.713146	 175.940700	-13.632640	 24.403620	-1.015309	-4.926050	 0.222574	 12.296400	 77.331480	-7.469042	-1.288183	 28.361890	 2.710176	 1.208155	 2.585164	-19.708730	-1.628327	 3.347949	 3.673359	 1.516086	-4.215784	-10.681920	-101.478000	 1.740675	 90.353390	 58.255130	 43.145940	-44.361580	 9.615577	 4.055635	-20.037470	-13.659240	-9.610385	-14.692770	-6.580301	 5.266122	 0.000000	 0.000000	 0.000000	 0.000000	 0.000000	 0.000000	 0.000000	 0.089846	-3.783161	 0.005928	 0.023221	 1.006905	-2.642085	 101.796200	-0.213315	-89.955460	 0.764194	 43.330910	-6.331859	-45.856230	 39.717460	 41.708580	 5.077425	-53.336730	 50.004650	 15.208500	 5.323790	 0.000000	 0.000000	 0.000000	 0.000000	 0.000000	 0.000000	 0.000000
 0.002129	 1.255261	-0.176576	-0.299741	 0.003713	-179.994400	-174.997700	 1.935235	-24.982390	 4.028347	-18.345690	 0.393298	-10.125230	 75.835060	 7.661243	 1.292262	 28.425850	-2.713146	 175.940800	-13.632740	 24.403710	-1.015249	-4.925762	 0.222569	 12.296420	 77.331300	-7.469131	-1.288183	 28.361890	 2.710176	 1.338095	 2.520393	-22.625720	-1.628291	 3.348121	 3.673396	 1.516065	-4.215864	-10.681910	-101.478000	 1.740671	 90.353390	 58.150140	 43.089030	-44.236930	 10.664380	 4.070084	-22.940010	-13.526430	-9.907439	-18.552260	-6.580301	 5.266122	 0.000000	 0.000000	 0.000000	 0.000000	 0.000000	 0.000000	 0.000000	 0.089846	-3.783161	 0.005928	 0.023221	 1.006905	-2.642086	 101.796200	-0.213310	-89.955460	 0.405750	 41.677330	-5.603364	-52.357180	 41.992570	 49.179830	 5.660898	-56.840110	 51.778350	 15.208500	 5.323790	 0.000000	 0.000000	 0.000000	 0.000000	 0.000000	 0.000000	 0.000000
 0.002129	 1.255262	-0.176577	-0.299741	 0.003713	-179.994400	-174.997700	 1.935192	-24.982380	 4.028333	-18.345640	 0.393297	-10.125180	 75.835030	 7.661195	 1.292262	 28.425850	-2.713146	 175.940700	-13.632590	 24.403500	-1.015318	-4.926097	 0.222563	 12.295810	 77.331510	-7.468443	-1.288183	 28.361890	 2.710176	 1.445542	 2.460370	-25.097910	-1.628294	 3.348120	 3.673365	 1.516060	-4.215887	-10.681920	-101.478000	 1.740679	 90.353390	 58.043780	 43.031590	-44.111530	 11.648100	 4.082731	-25.662450	-13.525600	-9.810114	-21.960080	-6.580301	 5.266122	 0.000000	 0.000000	 0.000000	 0.000000	 0.000000	 0.000000	 0.000000	 0.089846	-3.783161	 0.005928	 0.023221	 1.006905	-2.642085	 101.796200	-0.213305	-89.955460	-0.102514	 40.252960	-4.733565	-58.721110	 43.621640	 56.588750	 6.049502	-59.701630	 52.891050	 15.208500	 5.323790	 0.000000	 0.000000	 0.000000	 0.000000	 0.000000	 0.000000	 0.000000
 0.002129	 1.255261	-0.176577	-0.299741	 0.003713	-179.994400	-174.997700	 1.935236	-24.982370	 4.028357	-18.345730	 0.393304	-10.125190	 75.835100	 7.661191	 1.292262	 28.425850	-2.713146	 175.940700	-13.632550	 24.403590	-1.015330	-4.926161	 0.222576	 12.296260	 77.331510	-7.468919	-1.288183	 28.361890	 2.710176	 1.541437	 2.401477	-27.358730	-1.628293	 3.348120	 3.673367	 1.516061	-4.215895	-10.681910	-101.478000	 1.740674	 90.353390	 57.924380	 42.966960	-43.973050	 12.674240	 4.095317	-28.501350	-13.660730	-9.294428	-25.252070	-6.580301	 5.266122	 0.000000	 0.000000	 0.000000	 0.000000	 0.000000	 0.000000	 0.000000	 0.089846	-3.783161	 0.005928	 0.023221	 1.006905	-2.642086	 101.796200	-0.213320	-89.955450	-0.846486	 38.886030	-3.594732	-65.530950	 44.819880	 64.595210	 6.412121	-62.225590	 53.546730	 15.208500	 5.323790	 0.000000	 0.000000	 0.000000	 0.000000	 0.000000	 0.000000	 0.000000
 0.002129	 1.255262	-0.176577	-0.299741	 0.003713	-179.994400	-174.997700	 1.935192	-24.982380	 4.028333	-18.345640	 0.393297	-10.125180	 75.835030	 7.661195	 1.292262	 28.425850	-2.713146	 175.940700	-13.632600	 24.403510	-1.015317	-4.926092	 0.222561	 12.295840	 77.331540	-7.468475	-1.288183	 28.361890	 2.710176	 1.640822	 2.334720	-29.763680	-1.628270	 3.348119	 3.673364	 1.516047	-4.215882	-10.681920	-101.478000	 1.740669	 90.353390	 57.753490	 42.873700	-43.773460	 14.032780	 4.108559	-32.261800	-14.060420	-7.925346	-29.111990	-6.580301	 5.266122	 0.000000	 0.000000	 0.000000	 0.000000	 0.000000	 0.000000	 0.000000	 0.089846	-3.783161	 0.005928	 0.023221	 1.006905	-2.642085	 101.796200	-0.213302	-89.955470	-2.208132	 37.262930	-1.670553	-74.626290	 45.612270	 75.426020	 7.089197	-64.806840	 53.712850	 15.208500	 5.323790	 0.000000	 0.000000	 0.000000	 0.000000	 0.000000	 0.000000	 0.000000
 0.002129	 1.255261	-0.176577	-0.299741	 0.003713	-179.994400	-174.997700	 1.935236	-24.982360	 4.028357	-18.345730	 0.393304	-10.125160	 75.835110	 7.661156	 1.292262	 28.425850	-2.713146	 175.940700	-13.632590	 24.403490	-1.015319	-4.926096	 0.222565	 12.295750	 77.331540	-7.468382	-1.288183	 28.361890	 2.710176	 1.693984	 2.296448	-31.079190	-1.628295	 3.348120	 3.673340	 1.516056	-4.215924	-10.681920	-101.478000	 1.740674	 90.353380	 57.608090	 42.794220	-43.606050	 15.087670	 4.117612	-35.181540	-14.544010	-6.312442	-31.616500	-6.580301	 5.266122	 0.000000	 0.000000	 0.000000	 0.000000	 0.000000	 0.000000	 0.000000	 0.089846	-3.783161	 0.005928	 0.023221	 1.006905	-2.642086	 101.796200	-0.213321	-89.955450	-3.612301	 36.154080	 0.211716	-81.549560	 45.619400	 83.803650	 8.106920	-66.197330	 53.469390	 15.208500	 5.323790	 0.000000	 0.000000	 0.000000	 0.000000	 0.000000	 0.000000	 0.000000
 0.002129	 1.255261	-0.176577	-0.299730	 0.003715	-179.994400	-174.997700	 1.935137	-24.982370	 4.028320	-18.345590	 0.393294	-10.125210	 75.835030	 7.661211	 1.292262	 28.425850	-2.713146	 175.940700	-13.632600	 24.403490	-1.015320	-4.926097	 0.222563	 12.295740	 77.331480	-7.468373	-1.288183	 28.361890	 2.710176	 1.723285	 2.274549	-31.813680	-1.628327	 3.347950	 3.673362	 1.516086	-4.215789	-10.681920	-101.478000	 1.740681	 90.353380	 57.451440	 42.708020	-43.425180	 16.138420	 4.124716	-38.090180	-15.169900	-4.233951	-33.575210	-6.580301	 5.266122	 0.000000	 0.000000	 0.000000	 0.000000	 0.000000	 0.000000	 0.000000	 0.089846	-3.783161	 0.005928	 0.023221	 1.006905	-2.642086	 101.796200	-0.213314	-89.955450	-5.379200	 35.185220	 2.501743	-88.141330	 45.138310	 91.930900	 9.932775	-67.054210	 53.124140	 15.208500	 5.323790	 0.000000	 0.000000	 0.000000	 0.000000	 0.000000	 0.000000	 0.000000
 0.002129	 1.255261	-0.176577	-0.299741	 0.003713	-179.994400	-174.997700	 1.935186	-24.982330	 4.028342	-18.345680	 0.393295	-10.125070	 75.835100	 7.661057	 1.292262	 28.425850	-2.713146	 175.940700	-13.632590	 24.403490	-1.015319	-4.926096	 0.222565	 12.295750	 77.331540	-7.468382	-1.288183	 28.361890	 2.710176	 1.723823	 2.274140	-31.827480	-1.628295	 3.348120	 3.673340	 1.516056	-4.215924	-10.681920	-101.478000	 1.740674	 90.353380	 57.264930	 42.604880	-43.211640	 17.275080	 4.131653	-41.236260	-15.994360	-1.491252	-34.935460	-6.580301	 5.266122	 0.000000	 0.000000	 0.000000	 0.000000	 0.000000	 0.000000	 0.000000	 0.089846	-3.783161	 0.005928	 0.023221	 1.006905	-2.642086	 101.796200	-0.213321	-89.955450	-7.810647	 34.291920	 5.563159	-94.739840	 44.141900	 100.285500	 13.250670	-67.406900	 52.849560	 15.208500	 5.323790	 0.000000	 0.000000	 0.000000	 0.000000	 0.000000	 0.000000	 0.000000
